<svg width="24" height="24" viewBox="0 0 24 24" fill="none" xmlns="http://www.w3.org/2000/svg">
<path d="M9.30005 5.83203C9.30005 5.83203 8.15817 5.26953 12.3 5.26953C13.7834 5.26953 15.2335 5.7094 16.4668 6.53351C17.7002 7.35762 18.6615 8.52896 19.2291 9.89941C19.7968 11.2699 19.9453 12.7779 19.6559 14.2327C19.3665 15.6876 18.6522 17.0239 17.6033 18.0728C16.5545 19.1217 15.2181 19.836 13.7632 20.1254C12.3084 20.4148 10.8004 20.2663 9.42992 19.6986C8.05948 19.131 6.88814 18.1697 6.06403 16.9363C5.23992 15.7029 4.80005 14.2529 4.80005 12.7695" stroke="#9475ED" stroke-miterlimit="10" stroke-linecap="round"/>
<path d="M10.7522 3.59961L8.71994 5.8064L11.4075 7.13947" stroke="#9475ED" stroke-linecap="round" stroke-linejoin="round"/>
</svg>
