<svg width="24" height="24" viewBox="0 0 24 24" fill="none" xmlns="http://www.w3.org/2000/svg">
<path d="M20.1132 2.50239C20.2014 2.55716 20.2737 2.63123 20.3237 2.71809C20.3737 2.80494 20.4 2.90189 20.4001 3.00039V12.0004C20.4001 12.1202 20.3614 12.2373 20.2891 12.3365C20.2168 12.4358 20.1141 12.5126 19.9943 12.5572L19.7539 12.0004L19.9943 12.5572L19.9904 12.5584L19.9827 12.562L19.953 12.5728C19.7831 12.6355 19.612 12.6955 19.4399 12.7528C19.0987 12.8668 18.6245 13.0204 18.0869 13.1728C17.0323 13.4752 15.6586 13.8004 14.5847 13.8004C13.4901 13.8004 12.5842 13.4644 11.7959 13.1704L11.7597 13.1584C10.9404 12.8524 10.2426 12.6004 9.41548 12.6004C8.51087 12.6004 7.29868 12.8764 6.26613 13.1728C5.80381 13.3066 5.34572 13.4526 4.89241 13.6108V21.0004C4.89241 21.1595 4.82433 21.3121 4.70315 21.4247C4.58197 21.5372 4.41762 21.6004 4.24625 21.6004C4.07488 21.6004 3.91053 21.5372 3.78935 21.4247C3.66817 21.3121 3.6001 21.1595 3.6001 21.0004V3.00039C3.6001 2.84126 3.66817 2.68865 3.78935 2.57613C3.91053 2.4636 4.07488 2.40039 4.24625 2.40039C4.41762 2.40039 4.58197 2.4636 4.70315 2.57613C4.82433 2.68865 4.89241 2.84126 4.89241 3.00039V3.33879C5.18447 3.24399 5.53339 3.13479 5.91333 3.02679C6.96785 2.72679 8.34287 2.40039 9.41548 2.40039C10.501 2.40039 11.385 2.73279 12.1565 3.02319L12.212 3.04479C13.0159 3.34599 13.7163 3.60039 14.5847 3.60039C15.4893 3.60039 16.7015 3.32439 17.7341 3.02799C18.3225 2.85737 18.904 2.66684 19.4774 2.45679L19.5019 2.44839L19.5071 2.44599H19.5084L20.1132 2.50239ZM19.1078 3.86559C18.8235 3.95919 18.4875 4.06599 18.1179 4.17159C17.0711 4.47399 15.6987 4.79919 14.5847 4.79919C13.4397 4.79919 12.5274 4.45599 11.7378 4.15839L11.7274 4.15479C10.9171 3.85239 10.2413 3.60039 9.41548 3.60039C8.55093 3.60039 7.34004 3.87519 6.29456 4.17399C5.82301 4.30909 5.35545 4.45594 4.89241 4.61439V12.334C5.17671 12.2404 5.51271 12.1336 5.88231 12.028C6.92908 11.7244 8.30151 11.4004 9.41548 11.4004C10.5101 11.4004 11.416 11.7364 12.2043 12.0304L12.2405 12.0424C13.0598 12.3484 13.7576 12.6004 14.5847 12.6004C15.448 12.6004 16.6602 12.3256 17.7056 12.0268C18.1772 11.8917 18.6447 11.7448 19.1078 11.5864V3.86679V3.86559Z" fill="#9475ED"/>
</svg>
