<svg width="24" height="24" viewBox="0 0 24 24" fill="none" xmlns="http://www.w3.org/2000/svg">
<path d="M13.503 10.6233C13.4317 10.6228 13.3631 10.6518 13.3122 10.704C13.2613 10.7562 13.2321 10.8273 13.2312 10.9019V12.9838C13.2321 13.0585 13.2614 13.1298 13.3125 13.182C13.3636 13.2342 13.4324 13.2631 13.5039 13.2624H19.5006C19.5721 13.2631 19.6409 13.2342 19.692 13.182C19.7431 13.1298 19.7724 13.0585 19.7733 12.9838V10.9019C19.7724 10.8271 19.7431 10.7558 19.692 10.7036C19.6409 10.6514 19.5721 10.6225 19.5006 10.6233H13.5039H13.503ZM17.1804 4.00094C18.0102 4.04235 18.6069 4.21365 18.9849 4.57696C19.3584 4.9365 19.5501 5.45698 19.5879 6.14595V8.11965C19.586 8.28774 19.5204 8.44816 19.4055 8.56569C19.2906 8.68322 19.1357 8.74825 18.975 8.7465C18.8953 8.74749 18.8163 8.73206 18.7423 8.7011C18.6683 8.67014 18.6009 8.62424 18.5439 8.56603C18.4869 8.50782 18.4415 8.43844 18.4101 8.36185C18.3788 8.28526 18.3621 8.20296 18.3612 8.11965L18.3621 6.18171C18.3423 5.82405 18.2604 5.60193 18.1434 5.48899C18.03 5.37981 17.6844 5.28192 17.1507 5.25368H5.3823C4.899 5.27251 4.5849 5.36851 4.4328 5.50499C4.3158 5.60946 4.2276 5.89747 4.2267 6.39537L4.224 17.4733C4.269 17.9571 4.3707 18.28 4.5012 18.4409C4.6002 18.5633 4.9071 18.6856 5.3589 18.7459H17.1633C17.7159 18.7571 18.0417 18.6706 18.1515 18.5548C18.273 18.4258 18.3612 18.087 18.3612 17.5326V15.6079C18.3612 15.2625 18.6357 14.981 18.975 14.981C19.3134 14.981 19.5879 15.2625 19.5879 15.6079V17.5326C19.5879 18.3797 19.4223 19.0132 19.0344 19.4245C18.6348 19.848 17.9994 20.0174 17.1507 19.9986L5.286 19.9958C4.4787 19.8979 3.9 19.6664 3.5553 19.24C3.243 18.8541 3.0693 18.3035 3 17.5336V6.39442C3.0018 5.56993 3.1908 4.94968 3.6246 4.5619C4.0224 4.20424 4.5966 4.03012 5.3589 4H17.1804V4.00094ZM19.5006 9.36957C20.3286 9.36957 21 10.0557 21 10.9019V12.9838C21 13.8299 20.3286 14.5161 19.5006 14.5161H13.5039C12.6759 14.5161 12.0045 13.829 12.0045 12.9838V10.9019C12.0045 10.0557 12.6759 9.36957 13.5039 9.36957H19.5006ZM15.0033 11.1955C14.5893 11.1955 14.2536 11.5343 14.2536 11.9513C14.2536 12.3692 14.5893 12.7071 15.0033 12.7071C15.4173 12.7071 15.753 12.3683 15.753 11.9513C15.753 11.5334 15.4173 11.1946 15.0033 11.1946V11.1955Z" fill="#9475ED"/>
</svg>
