<svg width="24" height="24" viewBox="0 0 24 24" fill="none" xmlns="http://www.w3.org/2000/svg">
<path d="M10.9878 4.42383H4.30833C3.80218 4.42383 3.31677 4.62489 2.95887 4.98279C2.60097 5.34069 2.3999 5.82611 2.3999 6.33225V19.6912C2.3999 20.1974 2.60097 20.6828 2.95887 21.0407C3.31677 21.3986 3.80218 21.5996 4.30833 21.5996H17.6673C18.1734 21.5996 18.6588 21.3986 19.0167 21.0407C19.3746 20.6828 19.5757 20.1974 19.5757 19.6912V13.0117" stroke="#F7F8FC" stroke-linecap="round" stroke-linejoin="round"/>
<path d="M18.1442 2.99326C18.5238 2.61365 19.0387 2.40039 19.5755 2.40039C20.1124 2.40039 20.6272 2.61365 21.0069 2.99326C21.3865 3.37287 21.5997 3.88773 21.5997 4.42458C21.5997 4.96143 21.3865 5.47629 21.0069 5.8559L11.9418 14.9209L8.125 15.8751L9.07921 12.0583L18.1442 2.99326Z" stroke="#F7F8FC" stroke-linecap="round" stroke-linejoin="round"/>
</svg>
