<svg width="24" height="24" viewBox="0 0 24 24" fill="none" xmlns="http://www.w3.org/2000/svg">
<path d="M11.9241 4.86193C14.1317 4.86193 16.249 5.74368 17.81 7.31322C19.3711 8.88276 20.2481 11.0115 20.2481 13.2312C20.2481 15.4508 19.3711 17.5796 17.81 19.1491C16.249 20.7186 14.1317 21.6004 11.9241 21.6004C9.71642 21.6004 7.59918 20.7186 6.03813 19.1491C4.47709 17.5796 3.6001 15.4508 3.6001 13.2312C3.6001 11.0115 4.47709 8.88276 6.03813 7.31322C7.59918 5.74368 9.71642 4.86193 11.9241 4.86193ZM11.9241 6.33885C10.106 6.33885 8.3624 7.065 7.07683 8.35756C5.79126 9.65012 5.06903 11.4032 5.06903 13.2312C5.06903 15.0591 5.79126 16.8122 7.07683 18.1048C8.3624 19.3973 10.106 20.1235 11.9241 20.1235C13.7421 20.1235 15.4858 19.3973 16.7713 18.1048C18.0569 16.8122 18.7791 15.0591 18.7791 13.2312C18.7791 11.4032 18.0569 9.65012 16.7713 8.35756C15.4858 7.065 13.7421 6.33885 11.9241 6.33885ZM11.9241 7.81577C12.1016 7.81578 12.273 7.88041 12.4068 7.9977C12.5406 8.11499 12.6276 8.27701 12.6517 8.45381L12.6585 8.55424V12.985C12.6585 13.1721 12.5878 13.3522 12.4608 13.4889C12.3337 13.6256 12.1598 13.7088 11.9741 13.7215C11.7885 13.7343 11.6049 13.6757 11.4606 13.5576C11.3162 13.4396 11.2218 13.2708 11.1965 13.0854L11.1896 12.985V8.55424C11.1896 8.35838 11.267 8.17055 11.4047 8.03207C11.5425 7.89358 11.7293 7.81577 11.9241 7.81577ZM18.9231 4.97417L19.0044 5.03325L20.1384 5.98242C20.2804 6.10249 20.3719 6.27214 20.3946 6.45729C20.4173 6.64244 20.3694 6.82935 20.2607 6.98048C20.1519 7.13161 19.9903 7.23575 19.8083 7.27198C19.6263 7.30821 19.4374 7.27384 19.2795 7.17578L19.1992 7.1167L18.0642 6.16753C17.9222 6.04746 17.8307 5.87781 17.808 5.69266C17.7853 5.50751 17.8332 5.3206 17.9419 5.16947C18.0507 5.01834 18.2123 4.9142 18.3943 4.87797C18.5763 4.84174 18.7652 4.87611 18.9231 4.97417ZM14.1275 2.40039C14.3136 2.40045 14.4927 2.47152 14.6287 2.59926C14.7646 2.72699 14.8473 2.90185 14.86 3.08852C14.8727 3.27518 14.8144 3.45973 14.697 3.60487C14.5796 3.75001 14.4117 3.84492 14.2274 3.87042L14.1275 3.87731H9.72067C9.53458 3.87726 9.35545 3.80618 9.21948 3.67845C9.0835 3.55072 9.00082 3.37585 8.98813 3.18919C8.97545 3.00252 9.03371 2.81797 9.15114 2.67283C9.26858 2.5277 9.43643 2.43279 9.62078 2.40728L9.72067 2.40039H14.1275Z" fill="#9475ED"/>
</svg>
