<svg width="36" height="36" viewBox="0 0 36 36" fill="none" xmlns="http://www.w3.org/2000/svg">
<g clip-path="url(#clip0_257_560)">
<path d="M8.24967 29.9993C6.06163 29.9997 3.96305 29.1309 2.4156 27.584C0.868142 26.0371 -0.00143309 23.9389 -0.00183092 21.7508C-0.00222874 19.5628 0.866583 17.4642 2.41348 15.9168C3.96037 14.3693 6.05863 13.4997 8.24667 13.4993C9.09138 11.4755 10.5935 9.79539 12.5106 8.73033C14.4277 7.66527 16.6478 7.27741 18.8124 7.62936C20.977 7.98132 22.9599 9.05256 24.4408 10.6701C25.9216 12.2877 26.8141 14.3571 26.9742 16.5443L27.7497 16.4993C29.5399 16.4993 31.2568 17.2105 32.5226 18.4764C33.7885 19.7422 34.4997 21.4591 34.4997 23.2493C34.4997 25.0395 33.7885 26.7564 32.5226 28.0223C31.2568 29.2882 29.5399 29.9993 27.7497 29.9993H8.24967ZM8.24967 14.9993C6.45946 14.9993 4.74257 15.7105 3.4767 16.9764C2.21083 18.2422 1.49967 19.9591 1.49967 21.7493C1.49967 23.5395 2.21083 25.2564 3.4767 26.5223C4.74257 27.7882 6.45946 28.4993 8.24967 28.4993H27.7497C28.5416 28.4987 29.3231 28.319 30.0356 27.9735C30.7482 27.6281 31.3734 27.1259 31.8644 26.5046C32.3555 25.8833 32.6996 25.159 32.871 24.3859C33.0424 23.6128 33.0368 22.8109 32.8544 22.0403C32.672 21.2697 32.3177 20.5503 31.8179 19.9361C31.3182 19.3218 30.6859 18.8285 29.9685 18.4932C29.2511 18.1579 28.4672 17.9892 27.6753 17.9998C26.8835 18.0104 26.1043 18.2 25.3962 18.5543L25.4997 17.2493C25.502 15.2493 24.7777 13.3164 23.4615 11.8105C22.1453 10.3045 20.3268 9.32798 18.3444 9.06258C16.362 8.79717 14.3507 9.26096 12.6847 10.3677C11.0187 11.4743 9.81151 13.1486 9.28767 15.0788L8.24967 14.9993ZM17.9997 25.4993V17.6243L21.3747 20.9993L22.4997 20.0033L17.2497 14.7533L11.9997 20.0033L13.1247 20.9993L16.4997 17.6243V25.4993H17.9997Z" fill="#C7C7C7"/>
</g>
<defs>
<clipPath id="clip0_257_560">
<rect width="36" height="36" fill="white"/>
</clipPath>
</defs>
</svg>
