<svg width="24" height="24" viewBox="0 0 24 24" fill="none" xmlns="http://www.w3.org/2000/svg">
<path d="M9.2998 5.83203C9.2998 5.83203 8.15793 5.26953 12.2998 5.26953C13.7832 5.26953 15.2332 5.7094 16.4666 6.53351C17.6999 7.35762 18.6612 8.52896 19.2289 9.89941C19.7966 11.2699 19.9451 12.7779 19.6557 14.2327C19.3663 15.6876 18.652 17.0239 17.6031 18.0728C16.5542 19.1217 15.2178 19.836 13.763 20.1254C12.3081 20.4148 10.8001 20.2663 9.42968 19.6986C8.05923 19.131 6.88789 18.1697 6.06378 16.9363C5.23967 15.7029 4.7998 14.2529 4.7998 12.7695" stroke="#F7F8FC" stroke-miterlimit="10" stroke-linecap="round"/>
<path d="M10.7524 3.59961L8.72018 5.8064L11.4077 7.13947" stroke="#F7F8FC" stroke-linecap="round" stroke-linejoin="round"/>
</svg>
