<svg width="24" height="24" viewBox="0 0 24 24" fill="none" xmlns="http://www.w3.org/2000/svg">
<path d="M18.0885 18.6303C16.8014 19.8126 15.1979 20.5946 13.4738 20.8808C11.7497 21.167 9.9795 20.945 8.37944 20.2419C6.77938 19.5389 5.41865 18.3851 4.46337 16.9216C3.50809 15.458 2.99961 13.748 3 12.0003H4.5C4.49989 13.5109 4.95597 14.9864 5.80851 16.2335C6.66106 17.4806 7.87032 18.4412 9.27796 18.9894C10.6856 19.5377 12.226 19.6481 13.6975 19.3062C15.1689 18.9643 16.5028 18.186 17.5245 17.0733H15.345C15.1461 17.0733 14.9553 16.9943 14.8147 16.8536C14.674 16.713 14.595 16.5222 14.595 16.3233C14.595 16.1244 14.674 15.9336 14.8147 15.793C14.9553 15.6523 15.1461 15.5733 15.345 15.5733H18.8385C19.0374 15.5733 19.2282 15.6523 19.3688 15.793C19.5095 15.9336 19.5885 16.1244 19.5885 16.3233V19.8138C19.5885 20.0127 19.5095 20.2035 19.3688 20.3441C19.2282 20.4848 19.0374 20.5638 18.8385 20.5638C18.6396 20.5638 18.4488 20.4848 18.3082 20.3441C18.1675 20.2035 18.0885 20.0127 18.0885 19.8138V18.6288V18.6303ZM6.4755 6.9288H8.655C8.85391 6.9288 9.04468 7.00782 9.18533 7.14847C9.32598 7.28912 9.405 7.47989 9.405 7.6788C9.405 7.87771 9.32598 8.06848 9.18533 8.20913C9.04468 8.34978 8.85391 8.4288 8.655 8.4288H5.16C4.96109 8.4288 4.77032 8.34978 4.62967 8.20913C4.48902 8.06848 4.41 7.87771 4.41 7.6788V4.1853C4.41 3.98639 4.48902 3.79562 4.62967 3.65497C4.77032 3.51432 4.96109 3.4353 5.16 3.4353C5.35891 3.4353 5.54968 3.51432 5.69033 3.65497C5.83098 3.79562 5.91 3.98639 5.91 4.1853V5.3703C7.19693 4.1865 8.80084 3.40324 10.5257 3.11622C12.2506 2.8292 14.0217 3.05086 15.6227 3.75411C17.2236 4.45737 18.585 5.61175 19.5405 7.0762C20.496 8.54064 21.0042 10.2517 21.003 12.0003H19.503C19.5031 10.4895 19.047 9.01379 18.1942 7.76659C17.3415 6.51939 16.132 5.5588 14.7241 5.01065C13.3162 4.4625 11.7755 4.35235 10.304 4.69461C8.83239 5.03688 7.4985 5.81561 6.477 6.9288H6.4755Z" fill="#F7F8FC"/>
</svg>
