<svg width="24" height="24" viewBox="0 0 24 24" fill="none" xmlns="http://www.w3.org/2000/svg">
<path d="M18.324 16.093H17.0429C16.9554 16.093 16.8734 16.1321 16.8187 16.2009C16.6912 16.3591 16.5545 16.5116 16.4105 16.6567C15.8217 17.2585 15.1243 17.738 14.3568 18.0688C13.5616 18.4117 12.7069 18.5876 11.8438 18.586C10.9709 18.586 10.1253 18.4112 9.33075 18.0688C8.56323 17.738 7.86578 17.2585 7.27697 16.6567C6.68711 16.0571 6.21677 15.3463 5.892 14.5637C5.55486 13.7526 5.38538 12.8912 5.38538 12C5.38538 11.1089 5.55668 10.2475 5.892 9.4363C6.21637 8.65304 6.68289 7.94793 7.27697 7.34328C7.87106 6.73863 8.56172 6.26235 9.33075 5.93119C10.1253 5.58886 10.9709 5.41398 11.8438 5.41398C12.7167 5.41398 13.5622 5.587 14.3568 5.93119C15.1258 6.26235 15.8165 6.73863 16.4105 7.34328C16.5545 7.49025 16.6894 7.64281 16.8187 7.79909C16.8734 7.86793 16.9572 7.907 17.0429 7.907H18.324C18.4388 7.907 18.5099 7.77677 18.4461 7.67816C17.0484 5.46049 14.6028 3.99259 11.8237 4.00003C7.45739 4.01119 3.95667 7.62979 4.00041 12.0819C4.04414 16.4633 7.53939 20 11.8438 20C14.6155 20 17.0502 18.534 18.4461 16.3219C18.5081 16.2233 18.4388 16.093 18.324 16.093ZM19.9441 11.8828L17.3582 9.79909C17.2616 9.72095 17.1213 9.79165 17.1213 9.9163V11.3302H11.3991C11.3189 11.3302 11.2533 11.3972 11.2533 11.4791V12.5209C11.2533 12.6028 11.3189 12.6698 11.3991 12.6698H17.1213V14.0837C17.1213 14.2084 17.2634 14.2791 17.3582 14.2009L19.9441 12.1172C19.9615 12.1033 19.9756 12.0855 19.9853 12.0652C19.995 12.0449 20 12.0226 20 12C20 11.9774 19.995 11.9551 19.9853 11.9348C19.9756 11.9145 19.9615 11.8967 19.9441 11.8828Z" fill="#F7F8FC"/>
</svg>
