<svg width="24" height="24" viewBox="0 0 24 24" fill="none" xmlns="http://www.w3.org/2000/svg">
<path d="M12.5999 3.00039C12.5999 2.84126 12.5367 2.68865 12.4242 2.57613C12.3116 2.4636 12.159 2.40039 11.9999 2.40039C11.8408 2.40039 11.6882 2.4636 11.5756 2.57613C11.4631 2.68865 11.3999 2.84126 11.3999 3.00039V10.2004C11.3999 10.3595 11.4631 10.5121 11.5756 10.6247C11.6882 10.7372 11.8408 10.8004 11.9999 10.8004C12.159 10.8004 12.3116 10.7372 12.4242 10.6247C12.5367 10.5121 12.5999 10.3595 12.5999 10.2004V3.00039Z" fill="#9475ED"/>
<path d="M16.4916 4.80071C16.4233 4.76139 16.3479 4.73591 16.2697 4.72573C16.1916 4.71555 16.1122 4.72086 16.036 4.74137C15.8823 4.78277 15.7514 4.88354 15.672 5.02151C15.5926 5.15948 15.5712 5.32333 15.6126 5.47704C15.654 5.63074 15.7548 5.7617 15.8928 5.84111C17.3811 6.6981 18.5449 8.02233 19.2038 9.60834C19.8626 11.1943 19.9796 12.9534 19.5365 14.6127C19.0935 16.272 18.1152 17.7387 16.7535 18.7852C15.3918 19.8317 13.7227 20.3995 12.0053 20.4006C10.2879 20.4016 8.6182 19.8359 7.25519 18.791C5.89218 17.7462 4.9121 16.2807 4.46702 14.622C4.02195 12.9633 4.13675 11.204 4.79363 9.61721C5.45051 8.0304 6.61273 6.70474 8.09998 5.84591C8.16876 5.8068 8.22914 5.75447 8.27762 5.69193C8.3261 5.6294 8.36173 5.55789 8.38246 5.48153C8.4032 5.40516 8.40862 5.32545 8.39842 5.24698C8.38822 5.16852 8.3626 5.09284 8.32304 5.02431C8.28347 4.95579 8.23074 4.89576 8.16788 4.8477C8.10503 4.79963 8.03328 4.76448 7.95678 4.74425C7.88029 4.72403 7.80054 4.71913 7.72214 4.72985C7.64374 4.74057 7.56824 4.76669 7.49998 4.80671C5.78397 5.79774 4.44301 7.32742 3.68516 9.1584C2.92731 10.9894 2.79493 13.0193 3.30857 14.9332C3.82222 16.8471 4.95316 18.538 6.52593 19.7435C8.0987 20.949 10.0254 21.6017 12.007 21.6004C13.9886 21.599 15.9144 20.9437 17.4856 19.7361C19.0567 18.5285 20.1854 16.8362 20.6965 14.9216C21.2076 13.007 21.0725 10.9773 20.3122 9.1473C19.5519 7.31734 18.2089 5.78945 16.4916 4.80071Z" fill="#9475ED"/>
</svg>
