<svg width="24" height="24" viewBox="0 0 24 24" fill="none" xmlns="http://www.w3.org/2000/svg">
<path d="M11.7985 3.59961C16.5504 3.59961 20.4001 7.36029 20.4001 11.9996C20.4001 16.6389 16.5495 20.3996 11.7985 20.3996C9.11806 20.3996 6.63922 19.1925 5.0197 17.169C4.9743 17.1125 4.94072 17.0474 4.92096 16.9776C4.9012 16.9079 4.89567 16.8349 4.90468 16.7629C4.91369 16.691 4.93706 16.6216 4.97342 16.5589C5.00977 16.4962 5.05836 16.4414 5.1163 16.3979C5.23444 16.308 5.38294 16.2676 5.53033 16.2853C5.67772 16.303 5.81242 16.3774 5.9059 16.4928C7.31542 18.2526 9.4675 19.3009 11.7993 19.3009C15.9279 19.3009 19.2753 16.0316 19.2753 11.9996C19.2753 7.96761 15.9279 4.69833 11.7993 4.69833C10.6853 4.69405 9.58427 4.93708 8.57558 5.40991C7.56689 5.88273 6.67573 6.57355 5.96638 7.43253C5.87142 7.54681 5.73568 7.61959 5.58794 7.63543C5.44021 7.65127 5.29212 7.60892 5.1751 7.51737C5.11766 7.47304 5.06973 7.41761 5.03416 7.35438C4.99858 7.29115 4.97609 7.22141 4.96801 7.14931C4.95994 7.07721 4.96646 7.00422 4.98717 6.93469C5.00788 6.86516 5.04237 6.8005 5.08858 6.74457C6.71062 4.77057 9.1567 3.59961 11.7993 3.59961H11.7985ZM12.2563 9.36369L14.5302 11.6376C14.7503 11.8576 14.7545 12.2088 14.5394 12.4238L12.3193 14.6456C12.267 14.6967 12.2052 14.7371 12.1374 14.7643C12.0695 14.7915 11.9969 14.8051 11.9238 14.8042C11.8507 14.8034 11.7785 14.7881 11.7113 14.7593C11.6441 14.7305 11.5833 14.6887 11.5322 14.6364C11.4799 14.5853 11.4382 14.5244 11.4095 14.4571C11.3808 14.3899 11.3656 14.3177 11.3648 14.2446C11.364 14.1715 11.3777 14.0989 11.4049 14.0311C11.4322 13.9633 11.4726 13.9015 11.5238 13.8493L12.8233 12.549L4.1629 12.5498C4.0898 12.5507 4.01725 12.5372 3.94939 12.51C3.88152 12.4828 3.81969 12.4425 3.76742 12.3914C3.71514 12.3403 3.67346 12.2794 3.64475 12.2122C3.61604 12.1449 3.60087 12.0727 3.6001 11.9996C3.6001 11.6964 3.8521 11.4502 4.1629 11.4502H12.788L11.4793 10.1407C11.427 10.0896 11.3853 10.0287 11.3566 9.96146C11.3278 9.89423 11.3127 9.822 11.3119 9.74889C11.3111 9.67579 11.3247 9.60324 11.352 9.53542C11.3793 9.46759 11.4197 9.40581 11.4709 9.35361C11.5764 9.25085 11.7183 9.19412 11.8655 9.19585C12.0127 9.19758 12.1533 9.25764 12.2563 9.36285V9.36369Z" fill="#9475ED"/>
</svg>
